<?xml version="1.0" encoding="iso-8859-1"?>
<!-- Uploaded to: SVG Repo, www.svgrepo.com, Generator: SVG Repo Mixer Tools -->
<svg fill="#661ae6" version="1.1" id="Layer_1" xmlns="http://www.w3.org/2000/svg" xmlns:xlink="http://www.w3.org/1999/xlink" 
	 viewBox="0 0 208 208" xml:space="preserve">
<g>
	<g>
		<g>
			<path d="M168,0.013V0h-0.246H36H4v208h24h152h24V36.244C204,16.343,187.87,0.147,168,0.013z M44,8h116v48H44V8z M172,200H36v-80
				h136V200z M196,200h-16v-88H28v88H12V8h24v56h132V8.013c15.46,0.134,28,12.74,28,28.232V200z"/>
			<path d="M48,52h28V12H48V52z M56,20h12v24H56V20z"/>
			<rect x="48" y="132" width="112" height="8"/>
			<rect x="48" y="148" width="112" height="8"/>
			<rect x="48" y="164" width="112" height="8"/>
		</g>
	</g>
</g>
</svg>